<?xml version="1.0" encoding="utf-8"?>
<!-- Generator: Adobe Illustrator 23.0.0, SVG Export Plug-In . SVG Version: 6.00 Build 0)  -->
<svg version="1.1" id="Capa_1" xmlns="http://www.w3.org/2000/svg" xmlns:xlink="http://www.w3.org/1999/xlink" x="0px" y="0px"
	 viewBox="0 0 91.402 48.584" enable-background="new 0 0 91.402 48.584" xml:space="preserve">
<title>Asset 7</title>
<g>
	<path fill="#FFFFFF" d="M39.789,7.484c-0.182,0.443-0.365,0.887-0.548,1.331c-0.184,0.445-0.369,0.89-0.554,1.336
		c-0.186,0.447-0.372,0.894-0.558,1.342c-0.187,0.449-0.374,0.898-0.561,1.349c-0.012,0.03-0.024,0.06-0.035,0.091
		c-0.011,0.031-0.021,0.061-0.032,0.092c-0.01,0.031-0.02,0.062-0.03,0.093c-0.01,0.031-0.02,0.062-0.031,0.092
		c0.006,0.005,0.012,0.011,0.017,0.017c0.006,0.005,0.012,0.011,0.017,0.016c0.006,0.005,0.011,0.011,0.017,0.016
		c0.006,0.005,0.011,0.011,0.017,0.016c0.105-0.054,0.211-0.108,0.317-0.163c0.107-0.055,0.215-0.111,0.326-0.168
		c0.111-0.057,0.225-0.116,0.342-0.176c0.118-0.061,0.24-0.124,0.368-0.189c-0.024,0.142-0.047,0.277-0.069,0.407
		c-0.022,0.131-0.043,0.257-0.064,0.379c-0.021,0.123-0.042,0.242-0.065,0.36c-0.023,0.118-0.046,0.233-0.072,0.349
		c-0.005,0.024-0.018,0.048-0.036,0.071c-0.018,0.023-0.041,0.045-0.066,0.067c-0.025,0.021-0.053,0.041-0.082,0.06
		c-0.028,0.019-0.057,0.036-0.083,0.051c-0.118,0.069-0.236,0.137-0.355,0.205c-0.118,0.068-0.237,0.136-0.356,0.203
		c-0.119,0.067-0.239,0.134-0.358,0.2c-0.12,0.066-0.24,0.131-0.361,0.196c-0.065,0.035-0.124,0.073-0.178,0.115
		c-0.054,0.042-0.102,0.088-0.146,0.138c-0.044,0.05-0.083,0.104-0.118,0.162c-0.035,0.059-0.067,0.122-0.095,0.19
		c-0.29,0.702-0.581,1.406-0.874,2.111c-0.293,0.707-0.588,1.416-0.883,2.126c-0.296,0.712-0.593,1.426-0.891,2.142
		c-0.299,0.718-0.599,1.437-0.899,2.158c-0.012,0.029-0.024,0.058-0.038,0.086c-0.013,0.029-0.028,0.057-0.045,0.085
		c-0.017,0.028-0.037,0.056-0.06,0.083c-0.023,0.027-0.05,0.054-0.081,0.08c-0.016-0.145-0.032-0.289-0.047-0.434
		c-0.016-0.144-0.031-0.289-0.047-0.433c-0.016-0.144-0.031-0.288-0.047-0.432c-0.016-0.144-0.032-0.288-0.047-0.432
		c-0.01-0.093-0.02-0.186-0.029-0.279c-0.01-0.093-0.019-0.186-0.029-0.279c-0.01-0.093-0.021-0.185-0.033-0.278
		c-0.012-0.092-0.026-0.184-0.042-0.276c-0.01-0.058-0.013-0.112-0.009-0.162c0.004-0.05,0.015-0.098,0.031-0.143
		c0.017-0.045,0.039-0.089,0.067-0.133c0.027-0.043,0.06-0.087,0.096-0.131c0.048-0.059,0.097-0.119,0.144-0.18
		c0.047-0.061,0.093-0.124,0.136-0.187c0.043-0.064,0.084-0.128,0.122-0.195c0.037-0.066,0.071-0.134,0.1-0.203
		c0.117-0.279,0.232-0.558,0.346-0.837c0.114-0.279,0.226-0.558,0.337-0.838c0.111-0.279,0.222-0.558,0.332-0.837
		c0.11-0.278,0.221-0.556,0.331-0.834c0.007-0.018,0.013-0.036,0.019-0.056c0.006-0.02,0.011-0.041,0.016-0.066
		c0.006-0.025,0.012-0.052,0.019-0.084c0.007-0.032,0.015-0.067,0.026-0.109c-0.046,0.025-0.087,0.048-0.126,0.068
		c-0.039,0.021-0.074,0.039-0.107,0.057c-0.033,0.018-0.064,0.035-0.093,0.051c-0.029,0.017-0.056,0.034-0.083,0.052
		c-0.653,0.448-1.294,0.912-1.925,1.39c-0.632,0.479-1.254,0.973-1.865,1.481c-0.613,0.509-1.216,1.032-1.809,1.569
		c-0.595,0.538-1.18,1.089-1.757,1.654c-0.028,0.027-0.056,0.054-0.083,0.083c-0.028,0.028-0.055,0.057-0.08,0.087
		c-0.026,0.03-0.05,0.06-0.073,0.092c-0.022,0.031-0.043,0.064-0.06,0.097c-0.077,0.149-0.166,0.279-0.267,0.393
		c-0.1,0.114-0.212,0.213-0.333,0.301c-0.121,0.088-0.252,0.164-0.391,0.232c-0.139,0.068-0.285,0.13-0.438,0.187
		c-0.223,0.084-0.444,0.174-0.665,0.268c-0.221,0.094-0.441,0.193-0.663,0.293c-0.222,0.101-0.445,0.204-0.671,0.309
		c-0.226,0.104-0.456,0.209-0.689,0.314c0.031-0.033,0.06-0.064,0.087-0.093c0.027-0.029,0.053-0.057,0.078-0.084
		c0.025-0.027,0.049-0.053,0.073-0.078c0.024-0.025,0.047-0.049,0.071-0.073c0.617-0.62,1.217-1.253,1.804-1.894
		c0.586-0.639,1.159-1.287,1.725-1.939c0.564-0.65,1.12-1.305,1.672-1.96c0.551-0.653,1.099-1.307,1.647-1.957
		c0.659-0.781,1.316-1.56,1.97-2.337c0.653-0.775,1.303-1.548,1.952-2.318c0.647-0.768,1.293-1.534,1.937-2.298
		c0.642-0.761,1.284-1.52,1.924-2.276c0.14-0.166,0.27-0.336,0.387-0.512c0.118-0.176,0.224-0.357,0.319-0.545
		c0.095-0.188,0.179-0.383,0.251-0.585c0.072-0.202,0.134-0.412,0.184-0.631c0.134,0.08,0.266,0.157,0.396,0.233
		c0.13,0.076,0.257,0.151,0.383,0.225c0.126,0.075,0.249,0.149,0.371,0.225c0.122,0.076,0.242,0.153,0.361,0.232
		c0.017,0.011,0.028,0.035,0.035,0.065c0.007,0.031,0.009,0.068,0.008,0.109c-0.001,0.04-0.006,0.083-0.014,0.123
		C39.812,7.415,39.802,7.453,39.789,7.484 M36.694,11.361c0.009-0.022,0.017-0.044,0.025-0.067c0.007-0.023,0.014-0.045,0.021-0.068
		c0.007-0.023,0.013-0.046,0.019-0.069c0.006-0.023,0.013-0.046,0.02-0.069c-0.008-0.004-0.015-0.009-0.023-0.013
		c-0.008-0.004-0.015-0.009-0.023-0.013c-0.008-0.004-0.015-0.009-0.023-0.013c-0.008-0.004-0.015-0.009-0.023-0.013
		c-0.384,0.458-0.769,0.916-1.154,1.375c-0.386,0.46-0.773,0.92-1.16,1.382c-0.388,0.462-0.777,0.925-1.166,1.389
		c-0.39,0.464-0.78,0.93-1.172,1.396c0.006,0.006,0.013,0.012,0.019,0.018l0.019,0.018c0.006,0.006,0.013,0.012,0.019,0.018
		c0.006,0.006,0.013,0.012,0.019,0.018c0.013-0.006,0.025-0.012,0.038-0.018c0.013-0.006,0.025-0.012,0.038-0.018
		c0.013-0.006,0.025-0.012,0.038-0.019c0.012-0.007,0.024-0.014,0.036-0.021c0.244-0.162,0.488-0.324,0.731-0.485
		c0.243-0.162,0.487-0.323,0.73-0.485c0.243-0.162,0.485-0.324,0.727-0.486c0.242-0.162,0.483-0.326,0.723-0.489
		c0.033-0.023,0.066-0.05,0.096-0.079c0.03-0.03,0.059-0.063,0.085-0.097c0.026-0.035,0.051-0.071,0.072-0.108
		c0.022-0.037,0.041-0.075,0.057-0.112c0.104-0.239,0.206-0.479,0.308-0.718c0.102-0.239,0.203-0.479,0.303-0.718
		c0.1-0.239,0.2-0.478,0.3-0.717C36.494,11.838,36.594,11.6,36.694,11.361"/>
	<path fill="#FFFFFF" d="M66.232,14.541c1.437-0.437,2.874-0.868,4.309-1.298c1.433-0.43,2.863-0.859,4.29-1.295
		c1.424-0.435,2.844-0.877,4.257-1.332c1.411-0.454,2.815-0.921,4.21-1.408c-0.043,0.053-0.087,0.106-0.13,0.158
		c-0.043,0.053-0.087,0.105-0.13,0.158c-0.043,0.053-0.086,0.106-0.128,0.159c-0.042,0.053-0.084,0.107-0.125,0.161
		c-0.03,0.039-0.06,0.079-0.091,0.119c-0.031,0.04-0.061,0.08-0.089,0.12c-0.029,0.041-0.055,0.082-0.079,0.125
		c-0.024,0.043-0.044,0.087-0.06,0.132c-0.048,0.138-0.11,0.259-0.185,0.367c-0.075,0.108-0.162,0.203-0.26,0.288
		c-0.097,0.086-0.204,0.162-0.319,0.232c-0.115,0.071-0.237,0.136-0.364,0.2c-1.466,0.735-2.877,1.541-4.238,2.414
		c-1.365,0.876-2.68,1.82-3.948,2.83c-1.272,1.013-2.497,2.093-3.679,3.237c-1.186,1.148-2.328,2.361-3.43,3.635
		c-0.142,0.164-0.284,0.329-0.427,0.493c-0.142,0.165-0.284,0.33-0.426,0.496c-0.141,0.166-0.282,0.333-0.42,0.501
		c-0.139,0.169-0.276,0.338-0.411,0.51c-0.071,0.09-0.137,0.184-0.2,0.28c-0.063,0.096-0.123,0.195-0.182,0.295
		c-0.059,0.1-0.116,0.201-0.175,0.301c-0.058,0.1-0.117,0.201-0.179,0.299c-0.023,0.037-0.046,0.075-0.069,0.112
		c-0.023,0.038-0.047,0.075-0.071,0.112c-0.024,0.037-0.049,0.073-0.076,0.108c-0.026,0.035-0.054,0.068-0.084,0.1
		c-0.448,0.476-0.876,0.967-1.283,1.474c-0.408,0.508-0.796,1.031-1.163,1.571c-0.367,0.541-0.713,1.098-1.038,1.673
		c-0.325,0.576-0.628,1.168-0.908,1.779c0.049-0.282,0.106-0.562,0.169-0.841c0.063-0.278,0.131-0.555,0.203-0.83
		c0.072-0.275,0.148-0.549,0.226-0.822c0.078-0.273,0.158-0.544,0.239-0.816c0.053-0.178,0.106-0.355,0.159-0.532
		c0.053-0.177,0.107-0.354,0.161-0.531c0.054-0.177,0.109-0.353,0.164-0.529c0.055-0.176,0.111-0.351,0.168-0.526
		c0.017-0.053,0.035-0.106,0.055-0.159c0.02-0.053,0.041-0.105,0.064-0.157c0.023-0.051,0.049-0.101,0.076-0.149
		c0.028-0.048,0.058-0.094,0.091-0.137c0.306-0.399,0.613-0.796,0.92-1.193c0.306-0.396,0.613-0.791,0.919-1.186
		c0.306-0.394,0.611-0.787,0.917-1.179c0.305-0.392,0.609-0.783,0.913-1.174c0.024-0.031,0.049-0.062,0.073-0.094
		c0.025-0.032,0.05-0.064,0.076-0.097c0.026-0.033,0.053-0.068,0.081-0.104s0.058-0.074,0.089-0.114
		c-0.037-0.021-0.072-0.04-0.105-0.059c-0.033-0.019-0.064-0.037-0.093-0.054c-0.03-0.017-0.058-0.033-0.087-0.048
		c-0.028-0.015-0.057-0.029-0.085-0.042c-0.77-0.352-1.512-0.738-2.228-1.159c-0.714-0.42-1.402-0.875-2.061-1.365
		c-0.658-0.489-1.288-1.013-1.89-1.571c-0.601-0.557-1.173-1.15-1.717-1.777c-0.028-0.032-0.054-0.06-0.08-0.084
		c-0.025-0.024-0.05-0.044-0.073-0.061c-0.024-0.016-0.046-0.028-0.068-0.037c-0.022-0.008-0.044-0.012-0.065-0.012
		c-0.027,0-0.053,0.007-0.079,0.02c-0.026,0.013-0.052,0.033-0.078,0.06c-0.026,0.027-0.053,0.06-0.081,0.101
		c-0.027,0.041-0.056,0.088-0.085,0.142c-0.245,0.45-0.491,0.9-0.737,1.351c-0.247,0.452-0.494,0.904-0.741,1.358
		c-0.247,0.454-0.494,0.909-0.741,1.366c-0.247,0.457-0.493,0.916-0.738,1.376c-0.164,0.309-0.326,0.619-0.487,0.931
		c-0.161,0.312-0.32,0.625-0.479,0.939c-0.159,0.314-0.318,0.629-0.477,0.944c-0.159,0.315-0.319,0.631-0.479,0.947
		c-0.013,0.026-0.027,0.052-0.041,0.079c-0.014,0.027-0.029,0.055-0.045,0.085c-0.016,0.03-0.034,0.063-0.053,0.099
		c-0.019,0.036-0.04,0.076-0.064,0.12c-0.004-0.041-0.007-0.076-0.01-0.108c-0.003-0.032-0.006-0.061-0.008-0.087
		c-0.002-0.026-0.005-0.05-0.006-0.073c-0.002-0.023-0.003-0.044-0.005-0.066c-0.013-0.195-0.026-0.389-0.039-0.584
		c-0.013-0.194-0.026-0.389-0.039-0.583c-0.013-0.194-0.025-0.388-0.036-0.582c-0.011-0.194-0.021-0.387-0.031-0.581
		c-0.002-0.035,0-0.072,0.005-0.109c0.005-0.037,0.012-0.074,0.022-0.11c0.01-0.037,0.022-0.073,0.036-0.108
		c0.014-0.035,0.03-0.068,0.047-0.1c0.141-0.26,0.282-0.52,0.423-0.779c0.141-0.259,0.283-0.517,0.425-0.775
		c0.142-0.258,0.283-0.515,0.425-0.773c0.141-0.257,0.282-0.514,0.423-0.771c0.016-0.029,0.031-0.058,0.045-0.088
		c0.014-0.03,0.028-0.06,0.042-0.09c0.014-0.03,0.027-0.06,0.04-0.09c0.013-0.03,0.027-0.06,0.041-0.09
		c-0.706,0.425-1.408,0.855-2.107,1.29c-0.7,0.436-1.397,0.876-2.093,1.32c-0.697,0.444-1.392,0.892-2.087,1.342
		c-0.696,0.451-1.392,0.903-2.089,1.357c0.389-0.783,0.782-1.561,1.177-2.335c0.395-0.771,0.792-1.539,1.191-2.303
		c0.398-0.763,0.799-1.523,1.2-2.282c0.4-0.757,0.802-1.513,1.204-2.27c-0.033-0.005-0.063-0.01-0.089-0.015
		c-0.027-0.005-0.051-0.009-0.073-0.013c-0.022-0.004-0.042-0.007-0.061-0.009c-0.019-0.002-0.037-0.004-0.054-0.004
		c-0.047,0.002-0.089,0.004-0.128,0.006c-0.039,0.002-0.074,0.004-0.106,0.006c-0.032,0.002-0.06,0.004-0.086,0.005
		c-0.026,0.001-0.049,0.002-0.071,0.002c-0.055,0-0.096-0.005-0.128-0.021c-0.032-0.016-0.055-0.041-0.076-0.082
		c-0.02-0.041-0.037-0.097-0.057-0.174c-0.02-0.077-0.042-0.173-0.072-0.296c-0.006-0.025-0.012-0.05-0.019-0.075
		c-0.006-0.025-0.013-0.05-0.02-0.075c-0.007-0.025-0.014-0.05-0.021-0.074c-0.007-0.025-0.015-0.049-0.023-0.073
		c-0.002-0.007-0.006-0.014-0.011-0.021c-0.005-0.007-0.012-0.015-0.02-0.024c-0.008-0.009-0.018-0.02-0.029-0.033
		c-0.011-0.013-0.025-0.028-0.04-0.047c-0.02,0.044-0.04,0.086-0.06,0.126c-0.02,0.04-0.039,0.079-0.057,0.117
		c-0.018,0.038-0.036,0.076-0.053,0.113c-0.017,0.037-0.032,0.074-0.047,0.112c-0.359,0.927-0.719,1.856-1.08,2.789
		c-0.362,0.936-0.725,1.876-1.09,2.818c-0.366,0.946-0.733,1.894-1.103,2.846c-0.371,0.955-0.743,1.913-1.118,2.874
		c-0.099,0.255-0.202,0.51-0.306,0.764c-0.104,0.254-0.211,0.508-0.319,0.761c-0.108,0.254-0.218,0.507-0.329,0.76
		c-0.111,0.253-0.223,0.506-0.336,0.759c-0.025,0.057-0.056,0.114-0.091,0.168c-0.035,0.055-0.074,0.108-0.115,0.16
		c-0.042,0.051-0.087,0.1-0.133,0.146c-0.047,0.046-0.095,0.089-0.145,0.128c-0.148,0.118-0.297,0.234-0.448,0.348
		c-0.151,0.114-0.305,0.227-0.46,0.337c-0.156,0.111-0.314,0.22-0.474,0.328c-0.161,0.108-0.324,0.214-0.49,0.318
		c0.023-0.053,0.046-0.108,0.068-0.162c0.022-0.054,0.044-0.108,0.066-0.162c0.022-0.054,0.045-0.108,0.07-0.16
		c0.024-0.053,0.05-0.105,0.078-0.156c0.127-0.233,0.227-0.471,0.309-0.713c0.082-0.242,0.144-0.488,0.195-0.736
		c0.05-0.248,0.088-0.499,0.119-0.752c0.031-0.252,0.057-0.506,0.083-0.76c0.005-0.05,0.016-0.103,0.031-0.156
		c0.015-0.053,0.036-0.106,0.06-0.157c0.024-0.051,0.053-0.1,0.084-0.144c0.031-0.044,0.066-0.084,0.104-0.116
		c0.134-0.116,0.259-0.236,0.375-0.361c0.116-0.125,0.223-0.256,0.322-0.393c0.099-0.137,0.188-0.281,0.27-0.432
		c0.081-0.151,0.154-0.31,0.219-0.477c0.343-0.888,0.686-1.773,1.03-2.655c0.343-0.879,0.686-1.754,1.028-2.627
		c0.341-0.87,0.682-1.737,1.022-2.601c0.339-0.862,0.676-1.721,1.012-2.577c0.008-0.02,0.015-0.04,0.02-0.061
		c0.005-0.021,0.009-0.043,0.011-0.065c0.002-0.023,0.002-0.046,0-0.071c-0.002-0.025-0.006-0.051-0.013-0.078
		c-0.548,0.925-1.103,1.849-1.667,2.772c-0.566,0.926-1.142,1.85-1.731,2.772c-0.59,0.924-1.193,1.846-1.812,2.763
		c-0.62,0.92-1.256,1.835-1.911,2.745c0.265-1.203,0.529-2.401,0.792-3.594c0.262-1.188,0.522-2.371,0.782-3.549
		c0.259-1.173,0.516-2.341,0.772-3.504c0.255-1.158,0.509-2.311,0.762-3.459c-0.011-0.005-0.022-0.009-0.032-0.014
		c-0.011-0.005-0.022-0.009-0.032-0.013c-0.011-0.004-0.022-0.009-0.032-0.013c-0.011-0.004-0.021-0.009-0.032-0.013
		c-0.324,0.584-0.651,1.167-0.979,1.752c-0.329,0.586-0.659,1.173-0.988,1.762c-0.33,0.59-0.659,1.183-0.984,1.778
		c-0.326,0.597-0.65,1.197-0.968,1.801c-0.319,0.606-0.633,1.217-0.943,1.83c-0.311,0.615-0.619,1.233-0.926,1.853
		c-0.307,0.621-0.613,1.244-0.921,1.868c-0.308,0.625-0.616,1.25-0.928,1.875c-0.013-0.062-0.028-0.127-0.044-0.194
		c-0.016-0.067-0.033-0.137-0.049-0.209c-0.016-0.071-0.032-0.144-0.046-0.219c-0.014-0.074-0.026-0.149-0.034-0.225
		c-0.016-0.147-0.032-0.294-0.046-0.44c-0.015-0.147-0.028-0.293-0.04-0.44c-0.012-0.147-0.023-0.294-0.032-0.44
		c-0.009-0.147-0.017-0.294-0.023-0.44c-0.002-0.056-0.002-0.113,0.002-0.172c0.003-0.058,0.01-0.117,0.02-0.175
		c0.01-0.058,0.023-0.115,0.041-0.17c0.018-0.054,0.039-0.106,0.066-0.154c0.695-1.253,1.388-2.499,2.079-3.74
		c0.687-1.235,1.372-2.465,2.054-3.688c0.679-1.218,1.354-2.432,2.027-3.64c0.669-1.203,1.335-2.4,1.997-3.593
		c0.051-0.092,0.098-0.186,0.141-0.282c0.043-0.096,0.084-0.194,0.121-0.292c0.037-0.099,0.072-0.199,0.104-0.299
		c0.032-0.1,0.062-0.201,0.091-0.301c0.016-0.056,0.025-0.113,0.029-0.173c0.004-0.06,0.004-0.123,0.002-0.188
		c-0.002-0.066-0.006-0.135-0.009-0.208c-0.003-0.073-0.006-0.15-0.005-0.232C42.864,6.434,43,6.485,43.137,6.537
		c0.136,0.052,0.273,0.103,0.408,0.156c0.136,0.052,0.271,0.106,0.405,0.16c0.134,0.055,0.268,0.111,0.401,0.169
		c0.018,0.008,0.034,0.028,0.047,0.055c0.013,0.027,0.023,0.062,0.03,0.1c0.007,0.037,0.011,0.078,0.011,0.116
		c0.001,0.038-0.002,0.075-0.008,0.105c-0.094,0.443-0.189,0.887-0.284,1.332c-0.096,0.445-0.192,0.891-0.289,1.338
		c-0.097,0.447-0.194,0.895-0.292,1.344c-0.098,0.449-0.196,0.9-0.294,1.351c-0.1,0.457-0.199,0.915-0.299,1.374
		c-0.1,0.459-0.201,0.92-0.301,1.381c-0.101,0.462-0.201,0.924-0.302,1.388c-0.101,0.464-0.202,0.929-0.304,1.395
		c-0.006,0.027-0.011,0.054-0.015,0.081c-0.005,0.027-0.009,0.054-0.012,0.081c-0.004,0.027-0.007,0.054-0.011,0.082
		c-0.004,0.027-0.007,0.054-0.012,0.082c0.043-0.022,0.081-0.047,0.116-0.073c0.035-0.026,0.066-0.053,0.094-0.082
		c0.028-0.029,0.053-0.059,0.076-0.09c0.023-0.031,0.044-0.063,0.064-0.096c0.432-0.719,0.862-1.436,1.292-2.152
		c0.428-0.713,0.855-1.425,1.281-2.135c0.425-0.708,0.849-1.414,1.271-2.118c0.422-0.702,0.842-1.403,1.262-2.102
		c0.064-0.106,0.128-0.212,0.192-0.318c0.064-0.106,0.129-0.211,0.195-0.317c0.066-0.105,0.132-0.209,0.199-0.313
		c0.067-0.104,0.136-0.206,0.206-0.308c0.103-0.15,0.194-0.302,0.274-0.459c0.08-0.156,0.148-0.316,0.205-0.479
		c0.057-0.163,0.102-0.33,0.136-0.5c0.034-0.17,0.056-0.344,0.067-0.522c0.003-0.043,0.008-0.079,0.015-0.109
		c0.007-0.03,0.017-0.054,0.029-0.073c0.012-0.019,0.026-0.032,0.043-0.041c0.016-0.009,0.035-0.013,0.056-0.013
		c0.014,0,0.029,0.002,0.045,0.005c0.016,0.004,0.033,0.009,0.051,0.015c0.018,0.007,0.037,0.015,0.056,0.024
		c0.02,0.009,0.04,0.02,0.062,0.031c0.092,0.05,0.185,0.1,0.278,0.15c0.093,0.05,0.186,0.099,0.28,0.147
		c0.094,0.048,0.188,0.096,0.282,0.142c0.095,0.046,0.19,0.09,0.287,0.133c0.067,0.03,0.121,0.06,0.162,0.093
		c0.041,0.033,0.069,0.069,0.085,0.109c0.016,0.04,0.021,0.085,0.014,0.137c-0.007,0.052-0.025,0.11-0.053,0.177
		c-0.154,0.364-0.308,0.728-0.461,1.094c-0.153,0.366-0.306,0.733-0.458,1.1c-0.152,0.368-0.305,0.737-0.457,1.106
		c-0.152,0.37-0.304,0.74-0.456,1.111c-0.072,0.175-0.142,0.351-0.212,0.527c-0.07,0.176-0.139,0.353-0.208,0.53
		c-0.069,0.177-0.137,0.355-0.206,0.532c-0.068,0.178-0.137,0.356-0.206,0.534c-0.011,0.028-0.02,0.056-0.03,0.086
		c-0.009,0.03-0.018,0.061-0.028,0.096c-0.01,0.034-0.02,0.072-0.031,0.113c-0.011,0.041-0.024,0.087-0.039,0.138
		c0.161-0.022,0.318-0.042,0.471-0.062c0.153-0.02,0.302-0.039,0.449-0.059s0.291-0.04,0.434-0.061
		c0.143-0.021,0.284-0.044,0.425-0.068c0.024-0.004,0.048-0.016,0.071-0.033c0.023-0.017,0.046-0.04,0.067-0.065
		c0.021-0.025,0.041-0.053,0.059-0.082c0.018-0.028,0.034-0.057,0.048-0.083c0.238-0.444,0.477-0.886,0.715-1.328
		c0.238-0.441,0.475-0.882,0.71-1.322c0.235-0.44,0.468-0.88,0.698-1.32c0.229-0.44,0.456-0.881,0.677-1.323
		c0.052-0.105,0.092-0.216,0.122-0.332c0.03-0.116,0.051-0.236,0.068-0.358c0.016-0.122,0.027-0.246,0.038-0.369
		c0.01-0.123,0.02-0.246,0.032-0.366c0.01-0.092,0.017-0.165,0.028-0.222c0.011-0.057,0.025-0.099,0.049-0.128
		c0.024-0.03,0.057-0.048,0.105-0.059c0.048-0.011,0.111-0.014,0.195-0.014c0.33,0.006,0.655,0.011,0.977,0.017
		c0.321,0.006,0.638,0.012,0.952,0.017c0.314,0.006,0.626,0.011,0.936,0.016c0.31,0.005,0.619,0.009,0.928,0.012
		c0.069,0.001,0.129,0.007,0.179,0.021c0.05,0.014,0.091,0.035,0.124,0.064c0.032,0.029,0.056,0.067,0.072,0.115
		c0.015,0.048,0.023,0.105,0.022,0.173c0,0.119,0,0.238,0.002,0.357c0.002,0.119,0.004,0.238,0.007,0.357
		c0.003,0.119,0.006,0.238,0.009,0.357c0.003,0.119,0.006,0.238,0.008,0.356c-0.126-0.118-0.255-0.21-0.386-0.283
		c-0.132-0.073-0.266-0.126-0.404-0.167c-0.138-0.041-0.279-0.069-0.424-0.09c-0.145-0.022-0.293-0.037-0.446-0.052
		c-0.03-0.003-0.059-0.006-0.089-0.008c-0.029-0.002-0.058-0.004-0.086-0.006c-0.028-0.002-0.056-0.003-0.084-0.004
		c-0.028-0.001-0.055-0.001-0.082-0.001c-0.192,0-0.365,0.02-0.522,0.063c-0.157,0.043-0.298,0.108-0.426,0.198
		c-0.128,0.09-0.243,0.205-0.349,0.346c-0.105,0.142-0.201,0.311-0.29,0.509c-0.167,0.371-0.344,0.739-0.528,1.104
		c-0.185,0.366-0.376,0.729-0.571,1.091c-0.195,0.363-0.393,0.725-0.591,1.087c-0.198,0.363-0.395,0.727-0.588,1.094
		c-0.017,0.032-0.032,0.064-0.047,0.098c-0.015,0.034-0.03,0.07-0.046,0.108c-0.016,0.039-0.032,0.08-0.051,0.126
		c-0.019,0.045-0.039,0.095-0.062,0.15c0.274-0.029,0.543-0.058,0.809-0.087c0.267-0.029,0.531-0.057,0.795-0.085
		c0.265-0.028,0.53-0.057,0.798-0.086c0.269-0.029,0.54-0.058,0.819-0.088c-0.076,0.118-0.148,0.234-0.219,0.346
		c-0.071,0.112-0.14,0.222-0.208,0.33c-0.068,0.107-0.136,0.213-0.205,0.316c-0.069,0.103-0.138,0.205-0.21,0.305
		c-0.016,0.022-0.039,0.041-0.067,0.056c-0.028,0.015-0.061,0.028-0.096,0.038c-0.035,0.01-0.072,0.018-0.108,0.024
		c-0.037,0.006-0.073,0.011-0.106,0.015c-0.207,0.025-0.415,0.049-0.622,0.072c-0.207,0.023-0.415,0.046-0.623,0.069
		c-0.207,0.023-0.415,0.047-0.622,0.071s-0.415,0.051-0.622,0.078c-0.037,0.005-0.077,0.015-0.117,0.03
		c-0.04,0.015-0.081,0.033-0.118,0.056c-0.038,0.022-0.073,0.047-0.103,0.075c-0.03,0.027-0.055,0.057-0.071,0.088
		c-0.218,0.403-0.434,0.808-0.651,1.213c-0.217,0.406-0.433,0.813-0.648,1.221c-0.216,0.409-0.432,0.818-0.648,1.228
		c-0.216,0.411-0.433,0.822-0.65,1.234c-0.008,0.014-0.014,0.029-0.019,0.046c-0.006,0.017-0.011,0.035-0.016,0.057
		c-0.006,0.022-0.012,0.047-0.019,0.077c-0.008,0.03-0.016,0.064-0.028,0.104c0.045-0.025,0.085-0.047,0.122-0.067
		c0.037-0.02,0.07-0.038,0.101-0.054c0.031-0.017,0.059-0.032,0.086-0.048c0.027-0.015,0.052-0.031,0.077-0.047
		c0.231-0.149,0.462-0.298,0.693-0.446c0.231-0.148,0.462-0.297,0.691-0.446c0.23-0.149,0.459-0.299,0.687-0.45
		c0.228-0.151,0.454-0.304,0.679-0.459c0.069-0.047,0.132-0.101,0.193-0.16c0.061-0.058,0.119-0.121,0.176-0.185
		c0.057-0.065,0.113-0.131,0.169-0.197c0.056-0.066,0.114-0.132,0.173-0.195c0.071,0.093,0.144,0.189,0.219,0.287
		c0.075,0.098,0.152,0.199,0.231,0.303c0.079,0.104,0.16,0.21,0.243,0.32c0.084,0.11,0.169,0.222,0.258,0.339
		c0.029-0.044,0.055-0.085,0.08-0.122c0.024-0.037,0.047-0.071,0.068-0.103c0.021-0.032,0.04-0.062,0.059-0.091
		c0.018-0.029,0.035-0.058,0.051-0.087c0.109-0.2,0.218-0.4,0.326-0.601c0.108-0.2,0.216-0.4,0.324-0.6
		c0.108-0.2,0.217-0.399,0.326-0.597c0.109-0.198,0.22-0.396,0.331-0.593c0.035-0.063,0.065-0.124,0.087-0.185
		c0.022-0.061,0.037-0.122,0.044-0.183c0.007-0.061,0.005-0.123-0.005-0.185c-0.011-0.063-0.031-0.127-0.061-0.192
		c-0.031-0.067-0.05-0.128-0.057-0.183c-0.007-0.055-0.001-0.104,0.018-0.146c0.019-0.042,0.052-0.077,0.1-0.104
		c0.048-0.027,0.111-0.047,0.189-0.058c0.08-0.011,0.15-0.031,0.213-0.06c0.063-0.028,0.119-0.065,0.17-0.109
		c0.051-0.044,0.096-0.094,0.137-0.151c0.042-0.057,0.08-0.119,0.116-0.187c0.261-0.485,0.522-0.97,0.783-1.453
		c0.26-0.483,0.521-0.964,0.782-1.444c0.261-0.479,0.522-0.957,0.784-1.433c0.262-0.475,0.525-0.949,0.79-1.42
		c0.084-0.15,0.149-0.297,0.192-0.441c0.043-0.145,0.066-0.287,0.066-0.429c0-0.142-0.022-0.283-0.066-0.426
		c-0.045-0.142-0.113-0.285-0.205-0.43c-0.015-0.024-0.029-0.048-0.042-0.073c-0.013-0.025-0.026-0.05-0.038-0.075
		c-0.012-0.025-0.024-0.051-0.035-0.077s-0.023-0.051-0.035-0.077C58.163,7.005,58.162,7,58.163,6.994
		c0-0.006,0.001-0.014,0.003-0.025c0.002-0.01,0.004-0.023,0.007-0.04c0.003-0.016,0.006-0.036,0.009-0.061
		c0.047,0,0.094,0,0.142,0.001c0.048,0,0.096,0.001,0.143,0.001c0.048,0.001,0.096,0.001,0.144,0.002s0.097,0.001,0.145,0.001
		c0.035,0,0.071,0,0.106-0.001c0.035,0,0.071-0.001,0.106-0.002c0.035-0.001,0.071-0.002,0.106-0.003
		c0.035-0.001,0.071-0.003,0.106-0.005c0.034-0.002,0.071-0.006,0.108-0.012c0.038-0.006,0.076-0.015,0.111-0.026
		c0.036-0.011,0.069-0.025,0.098-0.042c0.028-0.017,0.052-0.036,0.068-0.059c0.021-0.03,0.042-0.056,0.062-0.076
		c0.021-0.021,0.041-0.038,0.063-0.05c0.021-0.013,0.042-0.022,0.065-0.028c0.022-0.006,0.045-0.009,0.069-0.009
		c0.016,0,0.033,0.001,0.051,0.004c0.018,0.002,0.036,0.006,0.055,0.01c0.019,0.004,0.039,0.01,0.059,0.016
		c0.02,0.006,0.042,0.013,0.064,0.02c0.056,0.019,0.114,0.035,0.173,0.048c0.059,0.014,0.119,0.025,0.179,0.034
		c0.06,0.009,0.121,0.016,0.182,0.02c0.061,0.004,0.121,0.007,0.181,0.007c0.35-0.007,0.697-0.017,1.041-0.027
		c0.344-0.011,0.686-0.022,1.026-0.033c0.34-0.011,0.679-0.021,1.016-0.029c0.338-0.008,0.675-0.013,1.012-0.015
		c0.134,0,0.267,0.006,0.399,0.017c0.132,0.011,0.263,0.026,0.394,0.044c0.13,0.018,0.26,0.04,0.389,0.063
		c0.129,0.023,0.257,0.048,0.384,0.073c0.069,0.014,0.137,0.032,0.205,0.054c0.068,0.022,0.136,0.048,0.203,0.077
		c0.067,0.029,0.133,0.061,0.197,0.094c0.064,0.034,0.127,0.069,0.188,0.106c0.268,0.161,0.486,0.356,0.649,0.572
		c0.163,0.216,0.272,0.452,0.321,0.696c0.05,0.244,0.041,0.496-0.032,0.742c-0.072,0.246-0.208,0.487-0.412,0.708
		c-0.134,0.146-0.275,0.286-0.422,0.422c-0.147,0.136-0.299,0.268-0.455,0.396c-0.156,0.128-0.316,0.253-0.477,0.375
		c-0.162,0.122-0.325,0.242-0.488,0.36c-0.589,0.427-1.194,0.832-1.811,1.215c-0.619,0.384-1.251,0.746-1.897,1.087
		c-0.647,0.342-1.306,0.662-1.979,0.962c-0.673,0.301-1.358,0.581-2.056,0.842c-0.03,0.011-0.059,0.023-0.088,0.034
		c-0.029,0.012-0.059,0.023-0.088,0.036c-0.029,0.012-0.058,0.025-0.087,0.037c-0.029,0.013-0.058,0.026-0.087,0.039
		c-0.007,0.003-0.013,0.008-0.019,0.013c-0.006,0.006-0.012,0.013-0.019,0.022c-0.007,0.008-0.014,0.018-0.022,0.029
		c-0.008,0.011-0.018,0.023-0.029,0.036c0.029,0.035,0.057,0.07,0.086,0.105c0.028,0.035,0.057,0.071,0.085,0.106
		c0.029,0.035,0.058,0.07,0.087,0.105c0.03,0.035,0.06,0.069,0.091,0.102c0.507,0.54,1.038,1.049,1.591,1.528
		c0.554,0.48,1.131,0.931,1.731,1.351c0.601,0.421,1.224,0.812,1.869,1.174c0.646,0.362,1.314,0.695,2.003,0.998
		c0.032,0.014,0.063,0.027,0.093,0.037c0.03,0.011,0.059,0.02,0.086,0.027c0.028,0.007,0.055,0.013,0.081,0.017
		s0.052,0.006,0.077,0.006c0.037,0,0.073-0.004,0.109-0.013c0.035-0.009,0.07-0.022,0.105-0.04c0.035-0.018,0.069-0.041,0.104-0.068
		c0.035-0.028,0.07-0.06,0.106-0.098c0.704-0.736,1.427-1.445,2.167-2.13c0.739-0.683,1.495-1.342,2.268-1.979
		c0.771-0.635,1.559-1.247,2.362-1.839c0.801-0.59,1.618-1.16,2.449-1.71c0.03-0.02,0.059-0.04,0.088-0.06
		c0.029-0.02,0.058-0.041,0.087-0.061c0.029-0.02,0.058-0.041,0.087-0.062c0.029-0.021,0.058-0.041,0.087-0.062
		c-0.056-0.012-0.11-0.018-0.162-0.02c-0.052-0.002-0.102,0-0.15,0.006c-0.049,0.006-0.096,0.014-0.142,0.025
		c-0.047,0.011-0.092,0.024-0.137,0.037c-1.073,0.322-2.148,0.644-3.223,0.966c-1.077,0.323-2.155,0.646-3.234,0.97
		c-1.081,0.324-2.162,0.65-3.245,0.975c-1.084,0.326-2.169,0.653-3.256,0.981c-0.032,0.01-0.063,0.018-0.094,0.025
		c-0.031,0.007-0.062,0.013-0.092,0.018c-0.03,0.005-0.06,0.009-0.09,0.011c-0.03,0.003-0.06,0.004-0.089,0.004
		c-0.04,0-0.079-0.002-0.118-0.007c-0.039-0.005-0.078-0.012-0.118-0.021c-0.039-0.009-0.079-0.021-0.118-0.036
		c-0.04-0.014-0.08-0.031-0.12-0.051c-0.108-0.052-0.216-0.102-0.326-0.152c-0.11-0.05-0.221-0.099-0.335-0.149
		c-0.114-0.05-0.23-0.1-0.35-0.152c-0.12-0.052-0.242-0.105-0.369-0.161c1.506-0.919,3.006-1.827,4.499-2.733
		c1.488-0.902,2.967-1.802,4.436-2.707c1.464-0.902,2.917-1.81,4.356-2.731c1.434-0.918,2.855-1.849,4.258-2.802
		c-0.005,0.023-0.01,0.042-0.013,0.059c-0.003,0.017-0.006,0.031-0.009,0.043c-0.003,0.012-0.005,0.023-0.007,0.032
		c-0.003,0.009-0.005,0.018-0.009,0.026c-0.168,0.389-0.337,0.778-0.506,1.168c-0.169,0.391-0.339,0.782-0.509,1.173
		c-0.17,0.392-0.341,0.785-0.512,1.178c-0.172,0.394-0.344,0.788-0.516,1.182c-0.012,0.026-0.025,0.053-0.041,0.08
		c-0.015,0.027-0.033,0.053-0.052,0.078c-0.019,0.024-0.04,0.047-0.062,0.066c-0.022,0.019-0.046,0.035-0.07,0.046
		c-0.128,0.057-0.257,0.112-0.388,0.165c-0.131,0.053-0.263,0.105-0.399,0.154c-0.135,0.049-0.273,0.096-0.415,0.141
		c-0.142,0.045-0.287,0.086-0.438,0.125c0.066-0.157,0.132-0.314,0.198-0.47c0.066-0.157,0.132-0.313,0.198-0.469
		c0.066-0.156,0.132-0.312,0.198-0.469c0.066-0.156,0.131-0.312,0.197-0.468c-0.683,0.408-1.36,0.822-2.035,1.239
		c-0.675,0.418-1.348,0.84-2.018,1.264c-0.671,0.425-1.341,0.854-2.01,1.284c-0.67,0.431-1.34,0.863-2.011,1.296
		c0.005,0.01,0.01,0.02,0.015,0.029c0.005,0.01,0.01,0.019,0.015,0.029c0.005,0.01,0.01,0.019,0.015,0.029
		C66.222,14.522,66.227,14.531,66.232,14.541 M57.351,14.415c0.105-0.039,0.21-0.078,0.315-0.117
		c0.105-0.039,0.209-0.079,0.314-0.118c0.105-0.04,0.209-0.08,0.313-0.121c0.104-0.041,0.208-0.082,0.311-0.124
		c0.699-0.286,1.384-0.592,2.054-0.921c0.67-0.328,1.325-0.677,1.965-1.049c0.639-0.371,1.262-0.765,1.87-1.182
		c0.606-0.416,1.197-0.856,1.77-1.319c0.07-0.057,0.145-0.115,0.217-0.177c0.071-0.062,0.138-0.127,0.192-0.199
		c0.054-0.072,0.096-0.149,0.115-0.235c0.02-0.086,0.018-0.18-0.015-0.286c-0.034-0.112-0.088-0.202-0.156-0.276
		c-0.068-0.073-0.15-0.13-0.24-0.175c-0.09-0.045-0.19-0.078-0.292-0.105c-0.103-0.027-0.208-0.046-0.312-0.065
		c-0.059-0.01-0.119-0.019-0.179-0.026c-0.06-0.007-0.12-0.013-0.18-0.017c-0.06-0.005-0.12-0.009-0.181-0.012
		c-0.06-0.004-0.12-0.007-0.18-0.01c-0.059-0.003-0.117-0.007-0.176-0.01c-0.059-0.003-0.117-0.007-0.176-0.009
		c-0.059-0.003-0.117-0.005-0.176-0.007c-0.059-0.002-0.117-0.003-0.176-0.003c-0.013,0-0.026,0-0.039,0c-0.013,0-0.026,0-0.039,0
		c-0.013,0-0.026,0.001-0.039,0.001c-0.013,0-0.026,0.001-0.039,0.001c-0.283,0.01-0.565,0.02-0.848,0.031
		c-0.283,0.011-0.565,0.022-0.848,0.034c-0.283,0.011-0.565,0.023-0.848,0.034c-0.283,0.011-0.565,0.021-0.848,0.031
		c-0.073,0.002-0.137,0.013-0.194,0.033c-0.057,0.019-0.106,0.046-0.15,0.08c-0.044,0.034-0.083,0.075-0.119,0.122
		c-0.036,0.047-0.068,0.1-0.1,0.159c-0.255,0.474-0.511,0.948-0.768,1.423c-0.257,0.476-0.516,0.952-0.775,1.429
		c-0.259,0.478-0.52,0.957-0.78,1.436c-0.261,0.48-0.522,0.962-0.784,1.444c-0.014,0.026-0.027,0.052-0.04,0.08
		c-0.013,0.028-0.026,0.058-0.04,0.09c-0.014,0.032-0.029,0.067-0.046,0.106c-0.017,0.039-0.035,0.081-0.056,0.128
		c0.048-0.011,0.09-0.021,0.129-0.029c0.039-0.008,0.074-0.016,0.105-0.023c0.032-0.007,0.061-0.014,0.089-0.021
		C57.3,14.432,57.326,14.424,57.351,14.415"/>
	<path fill="#FFFFFF" d="M34.089,6.474c0.053,0.003,0.106,0.008,0.16,0.014c0.054,0.006,0.109,0.014,0.167,0.023
		c0.057,0.009,0.117,0.018,0.181,0.028c0.064,0.01,0.131,0.02,0.203,0.03c-0.11,0.196-0.217,0.388-0.323,0.577
		c-0.106,0.189-0.209,0.375-0.312,0.558c-0.103,0.184-0.206,0.365-0.31,0.544c-0.104,0.179-0.208,0.357-0.314,0.534
		c-0.012,0.019-0.031,0.037-0.057,0.052c-0.025,0.015-0.056,0.029-0.089,0.04c-0.033,0.011-0.069,0.019-0.104,0.025
		c-0.036,0.006-0.071,0.009-0.104,0.009c-0.253-0.033-0.501-0.068-0.747-0.102c-0.246-0.035-0.489-0.07-0.729-0.106
		c-0.241-0.036-0.48-0.073-0.717-0.11c-0.238-0.037-0.475-0.075-0.711-0.114c-0.139-0.023-0.278-0.043-0.417-0.059
		c-0.139-0.017-0.277-0.031-0.415-0.042c-0.138-0.011-0.276-0.019-0.413-0.025c-0.138-0.006-0.275-0.008-0.412-0.008
		c-0.347,0-0.692,0.018-1.036,0.052c-0.344,0.034-0.687,0.085-1.029,0.152c-0.342,0.067-0.683,0.15-1.023,0.248
		c-0.34,0.098-0.68,0.211-1.019,0.338c-0.617,0.231-1.222,0.482-1.812,0.756c-0.591,0.275-1.167,0.575-1.726,0.904
		c-0.559,0.33-1.101,0.69-1.621,1.085c-0.522,0.396-1.022,0.828-1.499,1.301c-0.357,0.354-0.694,0.72-1.006,1.102
		c-0.312,0.382-0.6,0.778-0.858,1.191c-0.259,0.414-0.489,0.845-0.685,1.295c-0.197,0.451-0.36,0.921-0.485,1.412
		c-0.051,0.201-0.094,0.402-0.125,0.603c-0.031,0.201-0.052,0.402-0.059,0.602c-0.008,0.201-0.002,0.401,0.018,0.602
		c0.02,0.2,0.055,0.401,0.107,0.6c0.084,0.322,0.226,0.623,0.414,0.893c0.188,0.27,0.422,0.51,0.688,0.71
		c0.266,0.2,0.564,0.359,0.881,0.468c0.317,0.109,0.652,0.169,0.993,0.169c0.03,0,0.06,0,0.09-0.001
		c0.03-0.001,0.06-0.002,0.09-0.004c0.03-0.002,0.06-0.004,0.091-0.007c0.03-0.003,0.06-0.006,0.091-0.01
		c0.037-0.005,0.075-0.017,0.113-0.035c0.038-0.018,0.076-0.042,0.113-0.069c0.037-0.027,0.072-0.058,0.105-0.089
		c0.033-0.032,0.063-0.065,0.09-0.097c0.531-0.645,1.061-1.289,1.59-1.931c0.527-0.641,1.053-1.281,1.577-1.919
		c0.523-0.637,1.044-1.273,1.564-1.908c0.518-0.633,1.035-1.266,1.55-1.897c0.164-0.201,0.332-0.4,0.498-0.599
		c0.166-0.2,0.329-0.401,0.483-0.607c0.154-0.206,0.3-0.418,0.431-0.64c0.131-0.221,0.247-0.452,0.341-0.696
		c0.012-0.032,0.03-0.063,0.052-0.093c0.021-0.03,0.047-0.058,0.074-0.086c0.027-0.027,0.056-0.054,0.086-0.08
		c0.029-0.026,0.059-0.051,0.087-0.075c0.19-0.162,0.372-0.33,0.545-0.507c0.172-0.177,0.336-0.362,0.488-0.559
		c0.153-0.197,0.295-0.405,0.425-0.628c0.131-0.222,0.25-0.459,0.356-0.713c0.086,0.112,0.172,0.22,0.257,0.325
		c0.085,0.105,0.168,0.207,0.249,0.309c0.081,0.102,0.159,0.202,0.232,0.305c0.074,0.102,0.143,0.206,0.207,0.313
		c0.104,0.174,0.185,0.354,0.246,0.538c0.061,0.185,0.104,0.374,0.13,0.566c0.026,0.193,0.036,0.389,0.033,0.587
		c-0.003,0.198-0.019,0.398-0.044,0.599c-0.089,0.713-0.247,1.394-0.466,2.046c-0.22,0.653-0.502,1.276-0.84,1.873
		c-0.339,0.598-0.734,1.168-1.179,1.715c-0.446,0.547-0.943,1.07-1.483,1.572c-0.415,0.385-0.84,0.756-1.279,1.107
		c-0.439,0.351-0.893,0.681-1.363,0.983c-0.471,0.302-0.958,0.576-1.466,0.815c-0.508,0.239-1.037,0.442-1.589,0.603
		c-0.192,0.056-0.368,0.122-0.532,0.2c-0.164,0.078-0.315,0.167-0.457,0.268c-0.142,0.102-0.275,0.216-0.402,0.344
		c-0.127,0.128-0.247,0.271-0.365,0.428c-0.369,0.493-0.742,0.983-1.118,1.473c-0.377,0.491-0.757,0.981-1.137,1.472
		c-0.381,0.492-0.763,0.984-1.145,1.479c-0.382,0.495-0.763,0.993-1.142,1.493c-0.194,0.257-0.385,0.516-0.573,0.777
		c-0.189,0.262-0.375,0.526-0.56,0.791c-0.185,0.265-0.369,0.532-0.552,0.799c-0.184,0.267-0.367,0.535-0.551,0.803
		c-0.026,0.037-0.05,0.07-0.074,0.098c-0.024,0.028-0.048,0.052-0.073,0.071c-0.025,0.019-0.05,0.033-0.076,0.043
		c-0.027,0.01-0.055,0.015-0.085,0.015c-0.013,0-0.027-0.001-0.041-0.003c-0.014-0.002-0.029-0.005-0.045-0.008
		c-0.015-0.004-0.031-0.009-0.048-0.014c-0.017-0.006-0.034-0.012-0.052-0.02c-0.089-0.037-0.178-0.068-0.268-0.094
		c-0.09-0.025-0.181-0.045-0.272-0.06c-0.091-0.015-0.183-0.025-0.276-0.031c-0.092-0.006-0.185-0.009-0.278-0.009
		c-0.115,0-0.231,0.004-0.347,0.011c-0.116,0.007-0.232,0.015-0.349,0.025c-0.116,0.009-0.233,0.019-0.349,0.028
		c-0.116,0.009-0.232,0.016-0.348,0.02c-0.059,0.002-0.119,0.006-0.179,0.011c-0.061,0.005-0.122,0.011-0.187,0.018
		c-0.064,0.007-0.131,0.015-0.201,0.022c-0.07,0.008-0.144,0.016-0.222,0.023c0.842-0.786,1.646-1.596,2.426-2.421
		c0.777-0.823,1.529-1.661,2.268-2.507c0.737-0.843,1.461-1.694,2.184-2.546c0.721-0.849,1.44-1.698,2.171-2.54
		c-0.052-0.015-0.098-0.029-0.14-0.042c-0.043-0.013-0.081-0.025-0.117-0.036c-0.036-0.011-0.07-0.021-0.103-0.03
		c-0.033-0.009-0.064-0.016-0.096-0.023c-0.446-0.09-0.858-0.217-1.23-0.385c-0.372-0.168-0.706-0.377-0.995-0.632
		c-0.289-0.255-0.534-0.556-0.73-0.908c-0.195-0.351-0.342-0.753-0.434-1.211c-0.053-0.259-0.085-0.519-0.098-0.778
		c-0.014-0.259-0.01-0.518,0.011-0.777c0.02-0.258,0.056-0.517,0.106-0.774c0.05-0.257,0.113-0.514,0.188-0.77
		c0.167-0.571,0.376-1.116,0.622-1.638c0.245-0.521,0.528-1.02,0.844-1.498c0.315-0.477,0.662-0.934,1.038-1.373
		c0.375-0.438,0.779-0.859,1.206-1.263c0.595-0.563,1.218-1.074,1.865-1.539c0.646-0.464,1.316-0.882,2.008-1.26
		c0.691-0.377,1.403-0.714,2.134-1.016c0.73-0.302,1.479-0.569,2.243-0.807c0.596-0.186,1.194-0.347,1.793-0.485
		c0.599-0.137,1.201-0.251,1.804-0.342c0.603-0.09,1.209-0.158,1.816-0.202c0.607-0.045,1.217-0.067,1.829-0.067
		c0.121,0,0.243,0.001,0.364,0.003s0.243,0.004,0.365,0.008c0.122,0.003,0.244,0.008,0.366,0.013
		C33.845,6.461,33.967,6.467,34.089,6.474 M28.422,12.394c-0.626,0.806-1.251,1.61-1.876,2.415
		c-0.627,0.806-1.253,1.612-1.879,2.419c-0.628,0.809-1.257,1.618-1.887,2.429c-0.632,0.813-1.264,1.628-1.899,2.444
		c0.006,0.008,0.012,0.017,0.017,0.025c0.006,0.008,0.012,0.017,0.018,0.025c0.006,0.008,0.012,0.017,0.018,0.025
		c0.006,0.008,0.012,0.017,0.018,0.025c0.037-0.014,0.075-0.028,0.113-0.041c0.038-0.013,0.076-0.027,0.113-0.04
		c0.038-0.014,0.075-0.028,0.112-0.043c0.037-0.015,0.074-0.031,0.11-0.048c0.341-0.162,0.671-0.34,0.992-0.53
		c0.321-0.191,0.632-0.394,0.935-0.61c0.303-0.215,0.597-0.442,0.885-0.678c0.287-0.236,0.568-0.481,0.842-0.734
		c0.426-0.392,0.822-0.8,1.183-1.227c0.361-0.426,0.687-0.87,0.973-1.335c0.286-0.465,0.532-0.95,0.732-1.459
		c0.2-0.508,0.356-1.039,0.461-1.596c0.021-0.112,0.045-0.226,0.067-0.341c0.021-0.115,0.04-0.233,0.049-0.353
		c0.009-0.121,0.01-0.244-0.004-0.373C28.5,12.665,28.471,12.532,28.422,12.394"/>
	<path fill="#FFFFFF" d="M28.685,24.634c0.058,0,0.117,0,0.176,0.001c0.059,0.001,0.117,0.002,0.176,0.003
		c0.059,0.001,0.118,0.003,0.177,0.006c0.059,0.002,0.118,0.005,0.178,0.008c0.247,0.013,0.489,0.041,0.725,0.087
		c0.236,0.046,0.466,0.109,0.688,0.191c0.222,0.083,0.436,0.185,0.641,0.309c0.205,0.124,0.4,0.269,0.585,0.438
		c0.064,0.058,0.125,0.12,0.184,0.184c0.059,0.064,0.116,0.131,0.171,0.2s0.107,0.14,0.157,0.212
		c0.05,0.072,0.097,0.146,0.142,0.221c0.078,0.129,0.134,0.227,0.167,0.307c0.033,0.08,0.043,0.142,0.028,0.2
		c-0.015,0.058-0.054,0.112-0.119,0.175c-0.065,0.063-0.156,0.136-0.274,0.231c-0.152,0.123-0.301,0.248-0.45,0.375
		c-0.149,0.127-0.296,0.255-0.443,0.385c-0.147,0.129-0.294,0.259-0.441,0.389c-0.147,0.13-0.294,0.26-0.442,0.389
		c0.018-0.1,0.036-0.201,0.056-0.303c0.019-0.102,0.039-0.205,0.058-0.309c0.019-0.104,0.038-0.209,0.055-0.314
		c0.017-0.105,0.033-0.211,0.047-0.317c0.028-0.215,0.03-0.403,0.004-0.568c-0.026-0.165-0.08-0.306-0.164-0.426
		c-0.084-0.12-0.197-0.219-0.341-0.3c-0.145-0.081-0.321-0.144-0.53-0.191c-0.107-0.024-0.214-0.045-0.321-0.062
		c-0.107-0.017-0.214-0.032-0.321-0.043c-0.107-0.011-0.214-0.02-0.321-0.025c-0.107-0.005-0.214-0.008-0.32-0.008
		c-0.182,0-0.364,0.008-0.545,0.022c-0.182,0.014-0.363,0.035-0.544,0.062c-0.181,0.027-0.362,0.059-0.543,0.097
		c-0.181,0.037-0.361,0.08-0.541,0.126c-0.675,0.173-1.319,0.393-1.931,0.663c-0.612,0.271-1.191,0.592-1.733,0.969
		c-0.543,0.377-1.049,0.809-1.516,1.3c-0.467,0.492-0.895,1.043-1.279,1.658c-0.226,0.362-0.42,0.731-0.58,1.109
		c-0.16,0.378-0.284,0.763-0.371,1.156c-0.086,0.393-0.134,0.794-0.14,1.202c-0.006,0.409,0.03,0.824,0.111,1.247
		c0.094,0.488,0.276,0.942,0.528,1.348c0.252,0.407,0.573,0.767,0.944,1.065c0.371,0.299,0.791,0.537,1.24,0.699
		c0.449,0.163,0.928,0.251,1.415,0.251c0.049,0,0.097-0.001,0.146-0.003c0.049-0.002,0.098-0.004,0.146-0.008
		c0.049-0.004,0.098-0.008,0.147-0.013c0.049-0.005,0.098-0.012,0.147-0.019c0.592-0.088,1.141-0.237,1.65-0.445
		c0.509-0.208,0.977-0.474,1.408-0.794c0.43-0.32,0.822-0.693,1.179-1.116c0.356-0.423,0.677-0.895,0.964-1.413
		c0.102-0.183,0.2-0.369,0.295-0.556c0.095-0.187,0.186-0.376,0.274-0.567c0.088-0.19,0.172-0.382,0.254-0.574
		c0.081-0.192,0.16-0.386,0.235-0.58c0.031-0.08,0.052-0.164,0.066-0.252c0.014-0.087,0.02-0.178,0.022-0.269
		c0.002-0.091-0.001-0.184-0.005-0.275c-0.004-0.092-0.011-0.182-0.016-0.271c-0.003-0.054-0.004-0.1,0-0.14
		c0.003-0.039,0.011-0.072,0.023-0.097c0.012-0.026,0.028-0.045,0.05-0.057c0.022-0.013,0.049-0.019,0.083-0.019
		c0.011,0,0.022,0.001,0.033,0.002c0.012,0.001,0.024,0.003,0.037,0.005c0.013,0.002,0.027,0.005,0.041,0.009
		c0.014,0.003,0.029,0.007,0.045,0.012c0.1,0.029,0.2,0.058,0.3,0.086c0.1,0.028,0.2,0.056,0.301,0.083
		c0.1,0.027,0.201,0.055,0.302,0.081c0.101,0.027,0.202,0.053,0.302,0.08c0.048,0.013,0.088,0.029,0.119,0.049
		c0.031,0.021,0.054,0.045,0.069,0.074c0.015,0.029,0.021,0.062,0.019,0.099c-0.002,0.038-0.012,0.08-0.03,0.127
		c-0.185,0.485-0.371,0.971-0.57,1.451c-0.2,0.481-0.412,0.955-0.65,1.417c-0.238,0.462-0.5,0.91-0.799,1.338
		c-0.3,0.428-0.635,0.836-1.02,1.214c-0.402,0.396-0.817,0.751-1.247,1.059c-0.43,0.309-0.873,0.572-1.33,0.786
		c-0.457,0.214-0.928,0.378-1.412,0.489c-0.484,0.111-0.981,0.168-1.491,0.168c-0.157,0-0.315-0.005-0.474-0.016
		c-0.159-0.011-0.32-0.027-0.481-0.049c-0.162-0.022-0.324-0.05-0.488-0.083c-0.164-0.033-0.329-0.073-0.495-0.117
		c-0.628-0.17-1.196-0.438-1.694-0.786c-0.498-0.348-0.925-0.776-1.272-1.265c-0.347-0.489-0.613-1.039-0.789-1.633
		c-0.176-0.593-0.261-1.229-0.247-1.89c0.014-0.658,0.099-1.285,0.249-1.881c0.149-0.595,0.362-1.16,0.633-1.696
		c0.27-0.536,0.598-1.044,0.976-1.525c0.377-0.481,0.806-0.936,1.278-1.367c0.602-0.549,1.226-1.029,1.873-1.439
		c0.646-0.41,1.315-0.75,2.005-1.022c0.69-0.272,1.402-0.475,2.135-0.611C27.154,24.701,27.909,24.634,28.685,24.634"/>
	<path fill="#FFFFFF" d="M61.711,22.646c0.1,0.109,0.168,0.216,0.21,0.323c0.042,0.107,0.058,0.213,0.055,0.32
		c-0.003,0.108-0.025,0.217-0.058,0.329c-0.033,0.112-0.078,0.228-0.128,0.349c-0.182,0.443-0.363,0.887-0.541,1.333
		c-0.179,0.447-0.356,0.895-0.532,1.345c-0.176,0.45-0.351,0.902-0.525,1.355c-0.174,0.454-0.347,0.909-0.52,1.365
		c-0.408,1.08-0.817,2.164-1.227,3.252c-0.411,1.093-0.824,2.19-1.237,3.292c-0.415,1.106-0.832,2.216-1.25,3.331
		c-0.42,1.119-0.841,2.242-1.265,3.37c-0.015,0.04-0.031,0.08-0.048,0.119c-0.017,0.04-0.036,0.079-0.058,0.118
		c-0.022,0.039-0.047,0.079-0.076,0.118c-0.029,0.039-0.062,0.078-0.1,0.118c-0.032-0.146-0.062-0.291-0.093-0.437
		c-0.03-0.146-0.061-0.291-0.091-0.436c-0.031-0.145-0.062-0.29-0.095-0.435c-0.033-0.144-0.067-0.288-0.104-0.432
		c-0.032-0.124-0.067-0.247-0.104-0.37c-0.037-0.123-0.075-0.245-0.114-0.367c-0.039-0.122-0.078-0.244-0.116-0.366
		c-0.038-0.122-0.076-0.244-0.11-0.367c-0.009-0.031-0.017-0.064-0.024-0.099c-0.007-0.035-0.012-0.07-0.015-0.105
		c-0.003-0.035-0.002-0.069,0.002-0.1c0.004-0.031,0.012-0.061,0.025-0.086c0.136-0.259,0.242-0.524,0.327-0.794
		c0.085-0.27,0.148-0.544,0.198-0.821c0.05-0.277,0.086-0.557,0.116-0.838c0.03-0.281,0.055-0.563,0.081-0.845
		c0.06-0.638,0.12-1.274,0.181-1.909c0.061-0.633,0.122-1.265,0.183-1.896c0.061-0.629,0.122-1.257,0.183-1.883
		c0.06-0.625,0.121-1.249,0.181-1.871c0.047-0.484,0.093-0.968,0.14-1.451c0.046-0.482,0.092-0.963,0.138-1.443
		c0.046-0.48,0.091-0.958,0.137-1.436c0.045-0.477,0.09-0.953,0.135-1.429c0.002-0.016,0.001-0.031-0.001-0.049
		c-0.002-0.017-0.005-0.037-0.01-0.059c-0.004-0.022-0.01-0.048-0.016-0.079c-0.006-0.031-0.013-0.066-0.02-0.108
		c-0.027,0.043-0.051,0.08-0.073,0.114c-0.022,0.034-0.042,0.064-0.06,0.091c-0.018,0.028-0.034,0.053-0.049,0.077
		c-0.015,0.024-0.028,0.048-0.04,0.072c-0.731,1.411-1.466,2.829-2.204,4.254c-0.742,1.433-1.489,2.873-2.238,4.32
		c-0.753,1.455-1.51,2.918-2.269,4.389c-0.763,1.479-1.529,2.966-2.298,4.461c-0.079,0.154-0.149,0.313-0.213,0.475
		c-0.064,0.162-0.122,0.327-0.178,0.493c-0.056,0.166-0.109,0.333-0.163,0.5c-0.054,0.166-0.109,0.332-0.168,0.494
		c-0.077-0.09-0.159-0.181-0.248-0.268c-0.089-0.086-0.185-0.169-0.291-0.242c-0.105-0.073-0.219-0.137-0.344-0.187
		c-0.125-0.05-0.261-0.086-0.409-0.102c-0.068-0.008-0.112-0.03-0.139-0.062c-0.027-0.032-0.037-0.073-0.038-0.118
		c0-0.045,0.009-0.095,0.021-0.144c0.012-0.049,0.026-0.097,0.036-0.139c0.054-0.241,0.109-0.481,0.164-0.722
		c0.055-0.24,0.11-0.48,0.166-0.719c0.056-0.239,0.111-0.478,0.167-0.717c0.056-0.239,0.112-0.477,0.168-0.715
		c0.141-0.599,0.282-1.196,0.423-1.793c0.141-0.595,0.281-1.189,0.421-1.781c0.14-0.591,0.279-1.181,0.418-1.77
		c0.139-0.588,0.277-1.174,0.415-1.76c0.007-0.031,0.013-0.062,0.018-0.095c0.005-0.033,0.009-0.067,0.013-0.104
		c0.004-0.037,0.008-0.076,0.012-0.119c0.004-0.043,0.009-0.09,0.016-0.141c-0.086,0.025-0.168,0.05-0.247,0.074
		c-0.079,0.025-0.155,0.048-0.229,0.071c-0.074,0.022-0.146,0.043-0.218,0.062c-0.072,0.019-0.142,0.036-0.214,0.05
		c-0.285,0.056-0.548,0.138-0.793,0.245c-0.245,0.108-0.472,0.24-0.685,0.396c-0.213,0.156-0.412,0.334-0.601,0.534
		c-0.189,0.2-0.369,0.421-0.542,0.66c-0.399,0.551-0.806,1.097-1.22,1.64c-0.414,0.545-0.833,1.087-1.254,1.63
		c-0.421,0.544-0.844,1.089-1.265,1.637c-0.421,0.549-0.84,1.102-1.253,1.661c-0.131,0.177-0.267,0.341-0.409,0.493
		c-0.142,0.152-0.291,0.293-0.447,0.423c-0.156,0.13-0.321,0.25-0.494,0.36c-0.174,0.11-0.357,0.212-0.551,0.305
		c-0.221,0.107-0.44,0.219-0.657,0.335c-0.218,0.116-0.435,0.236-0.653,0.356c-0.218,0.12-0.437,0.241-0.658,0.359
		c-0.222,0.118-0.446,0.234-0.675,0.345c0.645-0.799,1.288-1.597,1.929-2.392c0.639-0.793,1.277-1.583,1.913-2.372
		c0.634-0.786,1.267-1.57,1.898-2.352c0.629-0.78,1.257-1.557,1.882-2.333c-0.009-0.009-0.017-0.018-0.026-0.028
		c-0.009-0.009-0.017-0.018-0.026-0.027c-0.009-0.009-0.017-0.018-0.026-0.027c-0.009-0.009-0.017-0.018-0.026-0.027
		c-1.313,0.568-2.574,1.217-3.791,1.937c-1.22,0.722-2.397,1.514-3.539,2.365c-1.146,0.853-2.257,1.766-3.343,2.726
		c-1.09,0.963-2.154,1.974-3.202,3.02c0.89-1.732,1.797-3.44,2.707-5.134c0.905-1.683,1.813-3.352,2.713-5.014
		c0.894-1.652,1.779-3.298,2.643-4.945c0.859-1.637,1.696-3.276,2.5-4.923c-0.004,0.28-0.005,0.558-0.004,0.833
		c0.001,0.276,0.002,0.551,0,0.824c-0.002,0.273-0.007,0.545-0.018,0.816c-0.012,0.271-0.03,0.541-0.059,0.81
		c-0.015,0.138-0.045,0.277-0.086,0.415c-0.041,0.138-0.094,0.275-0.154,0.411c-0.06,0.136-0.126,0.27-0.196,0.403
		c-0.069,0.132-0.142,0.263-0.212,0.39c-0.322,0.578-0.646,1.156-0.972,1.734c-0.327,0.58-0.656,1.16-0.986,1.741
		c-0.331,0.582-0.663,1.166-0.995,1.751c-0.333,0.586-0.666,1.174-0.998,1.763c-0.064,0.114-0.126,0.23-0.186,0.348
		c-0.06,0.118-0.117,0.237-0.172,0.359c-0.055,0.122-0.108,0.247-0.159,0.375c-0.051,0.128-0.099,0.259-0.145,0.393
		c0.033-0.018,0.066-0.036,0.098-0.054c0.033-0.018,0.066-0.036,0.099-0.053c0.033-0.018,0.065-0.036,0.098-0.055
		c0.032-0.019,0.064-0.038,0.096-0.057c0.354-0.22,0.708-0.439,1.062-0.658c0.354-0.219,0.707-0.437,1.059-0.656
		c0.352-0.219,0.704-0.438,1.055-0.659c0.35-0.22,0.699-0.442,1.047-0.666c0.45-0.29,0.908-0.558,1.374-0.809
		c0.465-0.251,0.937-0.486,1.414-0.71c0.476-0.223,0.958-0.435,1.441-0.641c0.483-0.206,0.969-0.405,1.456-0.604
		c0.055-0.023,0.111-0.049,0.165-0.08c0.054-0.03,0.108-0.064,0.159-0.102c0.051-0.037,0.1-0.077,0.145-0.12
		c0.045-0.043,0.086-0.088,0.123-0.134c0.327-0.42,0.653-0.84,0.978-1.26c0.324-0.419,0.648-0.838,0.97-1.257
		c0.321-0.418,0.641-0.837,0.959-1.256c0.317-0.419,0.632-0.838,0.945-1.258c0.128-0.172,0.251-0.347,0.367-0.528
		c0.116-0.181,0.225-0.367,0.325-0.56c0.1-0.193,0.19-0.393,0.269-0.603c0.079-0.209,0.146-0.428,0.199-0.657
		c0.087,0.058,0.171,0.113,0.254,0.168c0.083,0.055,0.164,0.108,0.244,0.161c0.08,0.053,0.158,0.105,0.236,0.157
		c0.078,0.052,0.155,0.104,0.232,0.156c0.146,0.1,0.256,0.174,0.335,0.241c0.079,0.067,0.128,0.125,0.153,0.192
		c0.025,0.067,0.027,0.143,0.012,0.244c-0.015,0.101-0.047,0.228-0.09,0.397c-0.079,0.315-0.158,0.63-0.236,0.945
		c-0.079,0.316-0.157,0.632-0.236,0.948c-0.079,0.317-0.157,0.634-0.235,0.952c-0.079,0.318-0.157,0.637-0.236,0.955
		c-0.007,0.027-0.013,0.055-0.018,0.083c-0.005,0.028-0.01,0.056-0.015,0.084c-0.004,0.028-0.009,0.056-0.013,0.084
		c-0.004,0.028-0.009,0.056-0.014,0.084c0.007,0.008,0.014,0.015,0.02,0.023c0.007,0.008,0.014,0.015,0.021,0.023
		c0.007,0.008,0.014,0.015,0.021,0.023c0.007,0.008,0.014,0.015,0.02,0.023c0.15-0.079,0.3-0.158,0.451-0.238
		c0.15-0.079,0.301-0.159,0.453-0.239c0.152-0.08,0.304-0.16,0.458-0.241c0.154-0.081,0.309-0.163,0.466-0.245
		c-0.011,0.106-0.022,0.211-0.032,0.315c-0.011,0.105-0.021,0.209-0.032,0.312c-0.011,0.104-0.021,0.207-0.032,0.31
		c-0.011,0.103-0.021,0.206-0.032,0.31c0.013,0.005,0.026,0.009,0.04,0.014c0.013,0.005,0.026,0.009,0.04,0.014
		c0.013,0.005,0.027,0.009,0.04,0.014c0.013,0.005,0.027,0.009,0.04,0.014c0.506-0.97,1.01-1.938,1.512-2.902
		c0.501-0.961,0.999-1.918,1.496-2.872c0.495-0.951,0.989-1.898,1.481-2.843c0.49-0.941,0.979-1.879,1.466-2.814
		c0.01,0.001,0.02,0.001,0.029,0.002l0.03,0.002c0.01,0.001,0.02,0.001,0.029,0.002c0.01,0.001,0.019,0.001,0.029,0.002
		c0.057,0.104,0.115,0.208,0.173,0.311c0.058,0.104,0.116,0.208,0.173,0.312c0.058,0.104,0.115,0.208,0.171,0.313
		c0.057,0.105,0.112,0.21,0.167,0.316c0.011,0.021,0.019,0.045,0.025,0.07c0.006,0.025,0.009,0.051,0.011,0.078
		c0.002,0.027,0.002,0.054,0.001,0.08c-0.001,0.027-0.003,0.053-0.005,0.078c-0.045,0.48-0.091,0.962-0.137,1.444
		c-0.046,0.483-0.092,0.967-0.139,1.451c-0.047,0.485-0.093,0.972-0.14,1.459c-0.047,0.488-0.093,0.977-0.139,1.466
		c-0.047,0.502-0.094,1.005-0.141,1.51c-0.047,0.505-0.094,1.011-0.14,1.518c-0.047,0.508-0.094,1.016-0.141,1.526
		c-0.047,0.511-0.094,1.022-0.142,1.534c-0.028,0.297-0.056,0.595-0.083,0.892c-0.028,0.298-0.056,0.596-0.084,0.895
		c-0.028,0.299-0.056,0.598-0.084,0.898c-0.028,0.3-0.056,0.6-0.084,0.901c-0.003,0.032-0.005,0.065-0.008,0.097
		c-0.002,0.032-0.004,0.065-0.005,0.097c-0.001,0.033-0.003,0.065-0.004,0.098c-0.001,0.033-0.003,0.065-0.004,0.097
		c0.035-0.015,0.065-0.032,0.091-0.051c0.026-0.018,0.048-0.038,0.067-0.06c0.019-0.021,0.035-0.044,0.048-0.067
		c0.013-0.023,0.024-0.048,0.034-0.073c0.341-0.899,0.681-1.794,1.019-2.687c0.338-0.89,0.674-1.777,1.009-2.662
		c0.334-0.882,0.667-1.761,0.998-2.638c0.33-0.874,0.659-1.745,0.986-2.614c0.096-0.255,0.184-0.513,0.262-0.772
		c0.078-0.259,0.145-0.521,0.2-0.786c0.055-0.265,0.098-0.533,0.126-0.805c0.028-0.272,0.042-0.547,0.04-0.827
		c0.058,0.108,0.116,0.215,0.174,0.323c0.058,0.108,0.116,0.216,0.174,0.323c0.058,0.108,0.116,0.216,0.174,0.324
		c0.058,0.108,0.116,0.216,0.174,0.324c0.02,0.037,0.038,0.074,0.056,0.113c0.018,0.038,0.035,0.077,0.054,0.114
		c0.019,0.038,0.038,0.075,0.06,0.109C61.66,22.584,61.684,22.617,61.711,22.646 M47.03,35.756c0.257-0.494,0.514-0.988,0.771-1.481
		c0.256-0.492,0.512-0.983,0.767-1.474c0.255-0.489,0.509-0.978,0.763-1.466c0.253-0.487,0.506-0.973,0.759-1.458
		c-0.006-0.009-0.012-0.018-0.018-0.027l-0.018-0.027c-0.006-0.009-0.012-0.018-0.018-0.027c-0.006-0.009-0.012-0.018-0.018-0.026
		c-0.12,0.025-0.24,0.051-0.36,0.077c-0.12,0.026-0.24,0.052-0.36,0.078c-0.12,0.026-0.24,0.051-0.361,0.076
		c-0.12,0.025-0.241,0.048-0.362,0.07c-0.068,0.013-0.127,0.031-0.178,0.056c-0.051,0.025-0.094,0.056-0.13,0.095
		c-0.036,0.038-0.066,0.084-0.09,0.136c-0.024,0.053-0.044,0.113-0.06,0.181c-0.093,0.405-0.187,0.809-0.282,1.214
		c-0.095,0.406-0.191,0.812-0.287,1.219c-0.096,0.407-0.193,0.815-0.29,1.224c-0.097,0.409-0.194,0.819-0.291,1.229
		c-0.006,0.024-0.01,0.048-0.014,0.073c-0.004,0.025-0.006,0.049-0.009,0.074c-0.003,0.025-0.005,0.05-0.007,0.075
		c-0.002,0.025-0.005,0.05-0.008,0.075c0.008,0.003,0.017,0.005,0.025,0.008c0.008,0.003,0.017,0.006,0.025,0.008
		c0.008,0.003,0.017,0.005,0.025,0.008C47.014,35.751,47.022,35.754,47.03,35.756 M45.724,29.403
		c0.096-0.025,0.191-0.049,0.287-0.074c0.096-0.024,0.191-0.049,0.287-0.074c0.096-0.025,0.191-0.05,0.287-0.075
		c0.095-0.025,0.191-0.051,0.286-0.078c0.012-0.003,0.025-0.01,0.037-0.018c0.012-0.008,0.025-0.019,0.036-0.03
		c0.011-0.011,0.021-0.024,0.029-0.037c0.008-0.013,0.014-0.026,0.017-0.038c0.041-0.154,0.081-0.308,0.121-0.462
		c0.04-0.154,0.08-0.308,0.119-0.461c0.039-0.154,0.079-0.307,0.118-0.461c0.039-0.154,0.078-0.307,0.117-0.46
		c-0.011-0.006-0.022-0.012-0.033-0.017c-0.011-0.006-0.022-0.011-0.033-0.017c-0.011-0.006-0.022-0.012-0.033-0.017
		c-0.011-0.006-0.022-0.012-0.033-0.017c-0.139,0.185-0.278,0.37-0.418,0.556c-0.139,0.186-0.279,0.371-0.418,0.557
		c-0.14,0.186-0.279,0.372-0.419,0.558c-0.14,0.186-0.28,0.373-0.42,0.559c0.006,0.009,0.012,0.018,0.017,0.027
		c0.006,0.009,0.012,0.018,0.017,0.027c0.006,0.009,0.011,0.018,0.017,0.027C45.712,29.385,45.718,29.394,45.724,29.403"/>
	<path fill="#FFFFFF" d="M82.13,6.403c0-0.346,0.282-0.629,0.629-0.629c0.346,0,0.629,0.282,0.629,0.629
		c0,0.346-0.282,0.629-0.629,0.629C82.412,7.031,82.13,6.749,82.13,6.403 M83.254,6.403c0-0.288-0.212-0.5-0.496-0.5
		c-0.282,0-0.492,0.212-0.492,0.5c0,0.292,0.21,0.502,0.492,0.502C83.042,6.905,83.254,6.694,83.254,6.403 M82.476,6.015h0.354
		c0.168,0,0.255,0.095,0.255,0.24c0,0.116-0.062,0.197-0.172,0.223c0.03,0.021,0.044,0.045,0.061,0.085l0.091,0.221h-0.127
		l-0.093-0.229c-0.021-0.044-0.038-0.053-0.115-0.053h-0.123v0.282h-0.131V6.015z M82.76,6.399c0.121,0,0.195-0.017,0.195-0.144
		c0-0.104-0.045-0.136-0.148-0.136h-0.201v0.28H82.76z"/>
</g>
</svg>
